<svg xmlns="http://www.w3.org/2000/svg" viewBox="0 0 128 128" role="img" aria-label="Coombb icon">
  <rect width="128" height="128" rx="20" fill="#fff7f5"/>
  <g fill="none" stroke="#e9897e" stroke-width="6" stroke-linecap="round" stroke-linejoin="round" transform="translate(18 18)">
    <path d="M22 4 40 14v21L22 45 4 35V14z"/>
    <path d="M58 4 76 14v21L58 45 40 35V14z"/>
    <path d="M76 35 94 45v21L76 76 58 66V45z"/>
    <path d="m22 35 10 6 8-5"/>
    <path d="m58 35 10 6 8-5"/>
    <path d="m76 66 10 6 8-5"/>
    <path d="M31 46v21m9-21v21m18-21v21"/>
  </g>
</svg>
